<svg width="9" height="9" fill="none" xmlns="http://www.w3.org/2000/svg"><path d="M4.596 2.354a2.238 2.238 0 00-2.242 2.242 2.238 2.238 0 002.242 2.241 2.238 2.238 0 002.241-2.241 2.238 2.238 0 00-2.241-2.242zm0 3.699a1.46 1.46 0 01-1.457-1.457 1.46 1.46 0 011.457-1.457 1.46 1.46 0 011.457 1.457 1.46 1.46 0 01-1.457 1.457zM6.929 1.74a.523.523 0 10-.001 1.046.523.523 0 00.001-1.046zm2.036 2.856c0-.603.006-1.201-.028-1.803-.034-.7-.194-1.32-.705-1.832C7.719.448 7.1.29 6.4.256 5.797.222 5.2.227 4.597.227S3.396.222 2.793.256C2.094.29 1.473.449.962.96.449 1.473.29 2.093.257 2.793c-.034.603-.029 1.2-.029 1.803 0 .602-.005 1.201.029 1.803.034.7.193 1.32.705 1.832.512.513 1.132.671 1.831.705.604.034 1.202.028 1.804.028.603 0 1.201.006 1.803-.028.7-.034 1.32-.194 1.832-.705.513-.513.671-1.132.705-1.832.035-.602.028-1.2.028-1.803zm-.961 2.577c-.08.199-.176.348-.33.5-.155.155-.302.25-.501.33-.575.23-1.94.178-2.577.178s-2.004.051-2.579-.176a1.389 1.389 0 01-.5-.33 1.398 1.398 0 01-.33-.5c-.227-.577-.176-1.942-.176-2.58 0-.636-.051-2.002.176-2.577.08-.2.176-.348.33-.5a1.41 1.41 0 01.5-.331c.575-.227 1.942-.176 2.579-.176.637 0 2.003-.051 2.578.176.199.08.348.176.5.33.155.154.25.302.33.5.228.575.177 1.942.177 2.579 0 .637.051 2.002-.177 2.577z" fill="#352A2A"/></svg>