<svg width="9" height="9" viewBox="0 0 9 9" fill="none" xmlns="http://www.w3.org/2000/svg">
<path d="M4.59574 2.35424C3.35525 2.35424 2.35412 3.35537 2.35412 4.59586C2.35412 5.83635 3.35525 6.83748 4.59574 6.83748C5.83623 6.83748 6.83736 5.83635 6.83736 4.59586C6.83736 3.35537 5.83623 2.35424 4.59574 2.35424ZM4.59574 6.05275C3.79352 6.05275 3.13885 5.39808 3.13885 4.59586C3.13885 3.79364 3.79352 3.13897 4.59574 3.13897C5.39796 3.13897 6.05263 3.79364 6.05263 4.59586C6.05263 5.39808 5.39796 6.05275 4.59574 6.05275ZM6.92917 1.74001C6.63954 1.74001 6.40565 1.97389 6.40565 2.26352C6.40565 2.55315 6.63954 2.78704 6.92917 2.78704C7.2188 2.78704 7.45269 2.55425 7.45269 2.26352C7.45277 2.19475 7.43929 2.12664 7.41301 2.06308C7.38673 1.99952 7.34818 1.94178 7.29955 1.89315C7.25091 1.84452 7.19317 1.80596 7.12961 1.77968C7.06606 1.7534 6.99794 1.73992 6.92917 1.74001ZM8.96532 4.59586C8.96532 3.99256 8.97078 3.39472 8.9369 2.79251C8.90302 2.09302 8.74345 1.47223 8.23195 0.960739C7.71937 0.44815 7.09967 0.289673 6.40019 0.255792C5.79688 0.221911 5.19904 0.227376 4.59683 0.227376C3.99353 0.227376 3.39569 0.221911 2.79348 0.255792C2.094 0.289673 1.47321 0.449243 0.961715 0.960739C0.449126 1.47333 0.29065 2.09302 0.256769 2.79251C0.222888 3.39581 0.228352 3.99365 0.228352 4.59586C0.228352 5.19807 0.222888 5.797 0.256769 6.39921C0.29065 7.09869 0.450219 7.71948 0.961715 8.23098C1.4743 8.74357 2.094 8.90204 2.79348 8.93592C3.39679 8.96981 3.99462 8.96434 4.59683 8.96434C5.20014 8.96434 5.79798 8.96981 6.40019 8.93592C7.09967 8.90204 7.72046 8.74247 8.23195 8.23098C8.74454 7.71839 8.90302 7.09869 8.9369 6.39921C8.97188 5.797 8.96532 5.19916 8.96532 4.59586ZM8.00353 7.17301C7.92375 7.37193 7.82757 7.52057 7.67346 7.67358C7.51936 7.82768 7.37181 7.92386 7.17289 8.00365C6.59801 8.23207 5.23293 8.1807 4.59574 8.1807C3.95856 8.1807 2.59238 8.23207 2.0175 8.00474C1.81858 7.92496 1.66994 7.82878 1.51693 7.67467C1.36282 7.52057 1.26665 7.37302 1.18686 7.17411C0.95953 6.59813 1.0109 5.23304 1.0109 4.59586C1.0109 3.95867 0.95953 2.5925 1.18686 2.01761C1.26665 1.8187 1.36282 1.67006 1.51693 1.51705C1.67103 1.36403 1.81858 1.26676 2.0175 1.18698C2.59238 0.959646 3.95856 1.01101 4.59574 1.01101C5.23293 1.01101 6.5991 0.959646 7.17399 1.18698C7.3729 1.26676 7.52154 1.36294 7.67455 1.51705C7.82866 1.67115 7.92484 1.8187 8.00462 2.01761C8.23195 2.5925 8.18059 3.95867 8.18059 4.59586C8.18059 5.23304 8.23195 6.59812 8.00353 7.17301Z" fill="#352A2A"/>
</svg>
